# xmcd CD database file
#
# Track frame offsets:
#	150
#	36817
#	64605
#	89230
#
# Disc length: 1454 seconds
#
# Revision: 2
# Processed by: cddbd v1.4PL0 Copyright (c) Steve Scherf et al.
# Submitted via: CDex 1.50beta9
#
DISCID=3105ac04
DTITLE=Ann Nesby - Witness ep
DYEAR=1996
DGENRE=House
TTITLE0=Can I get a witness (Mousse T´s Funk 2000 Mix)
TTITLE1=Can I get a witness (Mousse T´s Garage Mix)
TTITLE2=In the spirit (Album Mix)
TTITLE3=I´m still wearing your name (Radio Remix)
EXTD=YEAR: 1996
EXTT0=
EXTT1=
EXTT2=
EXTT3=
PLAYORDER=
